HIERARCHY
ROOT Hips
{
	OFFSET 0.000000 0.000000 0.000000
	CHANNELS 6 Xposition Yposition Zposition Zrotation Yrotation Xrotation 
	JOINT LHipJoint
	{
		OFFSET 0.000000 0.000000 0.000000
		CHANNELS 3 Zrotation Yrotation Xrotation
		JOINT LeftUpLeg
		{
			OFFSET 1.363060 -1.794630 0.839290
			CHANNELS 3 Zrotation Yrotation Xrotation
			JOINT LeftLeg
			{
				OFFSET 2.448110 -6.726130 0.000000
				CHANNELS 3 Zrotation Yrotation Xrotation
				JOINT LeftFoot
				{
					OFFSET 2.562200 -7.039590 0.000000
					CHANNELS 3 Zrotation Yrotation Xrotation
					JOINT LeftToeBase
					{
						OFFSET 0.157640 -0.433110 2.322550
						CHANNELS 3 Zrotation Yrotation Xrotation
						End Site
						{
							OFFSET 0.000000 0.000000 0.000000
						}
					}
				}
			}
		}
	}
	JOINT RHipJoint
	{
		OFFSET 0.000000 0.000000 0.000000
		CHANNELS 3 Zrotation Yrotation Xrotation
		JOINT RightUpLeg
		{
			OFFSET -1.305520 -1.794630 0.839290
			CHANNELS 3 Zrotation Yrotation Xrotation
			JOINT RightLeg
			{
				OFFSET -2.542530 -6.985550 0.000000
				CHANNELS 3 Zrotation Yrotation Xrotation
				JOINT RightFoot
				{
					OFFSET -2.568260 -7.056230 0.000000
					CHANNELS 3 Zrotation Yrotation Xrotation
					JOINT RightToeBase
					{
						OFFSET -0.164730 -0.452590 2.363150
						CHANNELS 3 Zrotation Yrotation Xrotation
						End Site
						{
							OFFSET 0.000000 0.000000 0.000000
						}
					}
				}
			}
		}
	}
	JOINT LowerBack
	{
		OFFSET 0.000000 0.000000 0.000000
		CHANNELS 3 Zrotation Yrotation Xrotation
		JOINT Spine
		{
			OFFSET 0.028270 2.035590 -0.193380
			CHANNELS 3 Zrotation Yrotation Xrotation
			JOINT Spine1
			{
				OFFSET 0.056720 2.048850 -0.042750
				CHANNELS 3 Zrotation Yrotation Xrotation
				JOINT Neck
				{
					OFFSET 0.000000 0.000000 0.000000
					CHANNELS 3 Zrotation Yrotation Xrotation
					JOINT Neck1
					{
						OFFSET -0.054170 1.746240 0.172020
						CHANNELS 3 Zrotation Yrotation Xrotation
						JOINT Head
						{
							OFFSET 0.104070 1.761360 -0.123970
							CHANNELS 3 Zrotation Yrotation Xrotation
							End Site
							{
								OFFSET 0.000000 0.000000 0.000000
							}
						}
					}
				}
				JOINT LeftShoulder
				{
					OFFSET 0.000000 0.000000 0.000000
					CHANNELS 3 Zrotation Yrotation Xrotation
					JOINT LeftArm
					{
						OFFSET 3.362410 1.200890 -0.311210
						CHANNELS 3 Zrotation Yrotation Xrotation
						JOINT LeftForeArm
						{
							OFFSET 4.983000 -0.000000 -0.000000
							CHANNELS 3 Zrotation Yrotation Xrotation
							JOINT LeftHand
							{
								OFFSET 3.483560 -0.000000 -0.000000
								CHANNELS 3 Zrotation Yrotation Xrotation
								JOINT LeftFingerBase
								{
									OFFSET 0.000000 0.000000 0.000000
									CHANNELS 3 Zrotation Yrotation Xrotation
									JOINT LeftHandIndex1
									{
										OFFSET 0.715260 -0.000000 -0.000000
										CHANNELS 3 Zrotation Yrotation Xrotation
										End Site
										{
											OFFSET 0.000000 0.000000 0.000000
										}
									}
								}
								JOINT LThumb
								{
									OFFSET 0.000000 0.000000 0.000000
									CHANNELS 3 Zrotation Yrotation Xrotation
									End Site
									{
										OFFSET 0.000000 0.000000 0.000000
									}
								}
							}
						}
					}
				}
				JOINT RightShoulder
				{
					OFFSET 0.000000 0.000000 0.000000
					CHANNELS 3 Zrotation Yrotation Xrotation
					JOINT RightArm
					{
						OFFSET -3.136600 1.374050 -0.404650
						CHANNELS 3 Zrotation Yrotation Xrotation
						JOINT RightForeArm
						{
							OFFSET -5.241900 -0.000000 -0.000000
							CHANNELS 3 Zrotation Yrotation Xrotation
							JOINT RightHand
							{
								OFFSET -3.444170 -0.000000 -0.000000
								CHANNELS 3 Zrotation Yrotation Xrotation
								JOINT RightFingerBase
								{
									OFFSET 0.000000 0.000000 0.000000
									CHANNELS 3 Zrotation Yrotation Xrotation
									JOINT RightHandIndex1
									{
										OFFSET -0.622530 -0.000000 -0.000000
										CHANNELS 3 Zrotation Yrotation Xrotation
										End Site
										{
											OFFSET 0.000000 0.000000 0.000000
										}
									}
								}
								JOINT RThumb
								{
									OFFSET 0.000000 0.000000 0.000000
									CHANNELS 3 Zrotation Yrotation Xrotation
									End Site
									{
										OFFSET 0.000000 0.000000 0.000000
									}
								}
							}
						}
					}
				}
			}
		}
	}
}
MOTION
Frames: 10
Frame Time: 0.008333
1.240010 18.079170 16.321349 1.554249 1.188735 1.063360 -3.544374 5.584727 6.585780 -19.372885 -6.276400 -4.099983 -1.142050 4.491395 19.749494 2.551204 -7.057449 3.807017 0.186872 2.783134 7.675594 2.370848 -2.926652 1.852174 14.664527 8.064996 -34.380504 -4.092846 -12.756273 38.877173 3.455934 -12.909606 9.179799 -0.004277 0.172340 -0.473628 -2.530727 -1.714761 6.078576 2.358568 -2.137510 2.093419 3.270926 -1.383955 -6.512670 -6.225693 -2.654745 -14.072528 4.166674 -2.591594 15.396423 0.408806 -1.029464 8.557623 -7.325407 1.986567 -1.165549 -74.737122 0.153753 27.092526 14.984853 -25.337485 -3.821290 -0.927479 -1.516595 -8.405139 30.363165 23.758960 14.538982 -7.125000 0.000000 0.000000 2.224505 58.676538 0.739583 11.659768 -1.830494 -2.672376 73.991336 -2.015502 12.065809 -10.500160 22.596562 -2.817838 1.117367 -0.465295 3.888486 -16.063605 18.686926 -5.751376 7.125000 0.000000 0.000000 7.143000 -10.300341 5.797080
1.236147 18.078886 16.428418 1.643354 1.399814 1.153167 -3.581438 5.628472 6.666045 -19.377972 -6.325160 -3.599218 -1.215876 4.319751 19.300428 2.532555 -7.007345 3.817145 0.200216 2.880803 7.947182 2.480956 -2.900806 1.782656 14.319715 8.130841 -34.258358 -3.651328 -12.320797 37.096472 3.669855 -13.610678 9.768614 -0.012631 0.655021 -1.800284 -2.643660 -1.828113 6.017384 2.389684 -2.291356 2.034233 3.369637 -1.465786 -6.532314 -6.275549 -2.626598 -14.037357 4.175138 -2.545545 15.450286 0.426019 -1.009392 8.570070 -7.325511 1.975556 -1.161072 -74.630958 -0.032973 27.095441 15.048672 -25.426040 -3.851212 -0.914303 -1.554136 -8.561578 30.313656 24.608593 14.965147 -7.125000 0.000000 0.000000 1.924715 59.631414 0.684750 11.664196 -1.836297 -2.681475 73.929569 -2.156557 12.081166 -10.468561 22.560896 -2.806669 1.120266 -0.455140 3.833142 -16.071658 18.543497 -5.710727 7.125000 0.000000 0.000000 7.129600 -10.455422 5.763440
1.229925 18.075713 16.535406 1.751684 1.578474 1.274834 -3.619648 5.668531 6.743533 -19.398905 -6.352591 -3.131758 -1.288644 4.146124 18.843943 2.510882 -6.937736 3.774354 0.194521 2.839171 7.831477 2.596536 -2.874109 1.706113 13.949555 8.263174 -34.132522 -3.224620 -11.862493 35.294557 3.919116 -14.398465 10.277169 -0.047777 1.278809 -3.518291 -2.791862 -1.902949 5.896354 2.394200 -2.396103 2.021452 3.451385 -1.525720 -6.465782 -6.279229 -2.632777 -14.049846 4.182077 -2.553377 15.416245 0.427968 -1.013501 8.560264 -7.325289 1.959691 -1.155768 -74.453176 -0.358641 27.296064 15.109020 -25.502635 -3.879318 -0.899709 -1.560677 -8.797680 30.118599 24.725892 14.915891 -7.125000 0.000000 0.000000 1.654448 59.715341 0.595654 11.667603 -1.841511 -2.684220 73.928917 -2.189411 11.993698 -10.408985 22.471830 -2.777747 1.128124 -0.462062 3.757153 -16.140386 18.649403 -5.770537 7.125000 0.000000 0.000000 7.085151 -10.330938 5.744742
1.222768 18.071396 16.642361 1.867624 1.744301 1.409111 -3.658312 5.707130 6.819920 -19.426109 -6.371580 -2.677480 -1.360994 3.971711 18.384522 2.488013 -6.860406 3.710617 0.181289 2.742400 7.562468 2.714281 -2.847077 1.626790 13.569360 8.421824 -34.005226 -2.803776 -11.395153 33.484246 4.182365 -15.220577 10.753954 -0.093527 1.958452 -5.391207 -2.954024 -1.962538 5.751639 2.388186 -2.481415 2.027040 3.526420 -1.576987 -6.365138 -6.264632 -2.652544 -14.081200 4.188412 -2.582537 15.347407 0.423875 -1.027181 8.541650 -7.324938 1.941903 -1.150137 -74.247045 -0.739308 27.574946 15.167995 -25.574496 -3.906706 -0.884553 -1.554947 -9.065315 29.865928 24.553308 14.678448 -7.125000 0.000000 0.000000 1.395867 59.454518 0.492995 11.670604 -1.846491 -2.684451 73.952456 -2.179434 11.865528 -10.338334 22.361626 -2.741798 1.137944 -0.475744 3.672991 -16.233132 18.854005 -5.870112 7.125000 0.000000 0.000000 7.028411 -10.095793 5.731959
1.215134 18.069251 16.744919 1.820743 1.919511 1.554089 -3.694916 5.755406 6.903056 -19.249090 -6.407406 -2.277245 -1.434954 3.806884 17.929122 2.476793 -6.810785 3.774275 0.166488 2.626643 7.241105 2.843650 -2.823766 1.546886 13.328183 8.653420 -33.849956 -2.401029 -10.896138 31.701148 4.446007 -15.972234 10.971483 -0.151778 2.469947 -6.808370 -2.945058 -2.048866 5.561094 2.419048 -2.581301 2.064932 3.544518 -1.639934 -6.204153 -6.228249 -2.671710 -14.154806 4.210490 -2.613308 15.276164 0.421508 -1.038560 8.529155 -7.324976 1.924065 -1.145251 -74.008680 -1.167485 27.919281 15.203392 -25.614677 -3.923363 -0.878511 -1.534969 -9.388160 29.760594 23.994749 14.325732 -7.125000 0.000000 0.000000 1.434253 58.793067 0.482857 11.673322 -1.846936 -2.677710 73.986035 -2.052358 11.705992 -10.268266 22.245517 -2.706749 1.143090 -0.491640 3.713958 -16.296468 19.037048 -5.952741 7.125000 0.000000 0.000000 6.992801 -9.885858 5.732303
1.207669 18.066890 16.846973 1.766381 2.102409 1.692783 -3.730443 5.804587 6.986383 -19.060547 -6.445112 -1.878676 -1.508851 3.642392 17.474806 2.470545 -6.782650 3.866503 0.152846 2.519042 6.942441 2.972566 -2.801949 1.468837 13.085993 8.889621 -33.683277 -2.001467 -10.392177 29.929634 4.696560 -16.668391 11.126110 -0.201355 2.889403 -7.971079 -2.930983 -2.141425 5.384177 2.458223 -2.689051 2.101290 3.569855 -1.706313 -6.052360 -6.196292 -2.685327 -14.237751 4.223670 -2.632757 15.225130 0.418387 -1.045372 8.525151 -7.325039 1.907079 -1.140646 -73.787178 -1.584423 28.233012 15.240075 -25.657377 -3.940883 -0.878867 -1.511268 -9.668942 29.772096 23.351776 13.989738 -7.125000 0.000000 0.000000 1.629443 58.061741 0.515431 11.675987 -1.846698 -2.670958 74.011156 -1.926586 11.524415 -10.203766 22.138524 -2.675352 1.146330 -0.506275 3.841814 -16.357510 19.175645 -6.020318 7.125000 0.000000 0.000000 6.957264 -9.724641 5.725718
1.201364 18.062403 16.947965 1.736204 2.325283 1.791269 -3.760670 5.854954 7.068033 -18.890135 -6.486626 -1.467421 -1.581728 3.475880 17.025016 2.487852 -6.865617 4.069301 0.146454 2.465722 6.794649 3.094128 -2.787121 1.401605 12.780972 9.122128 -33.463044 -1.612629 -9.873021 28.212990 4.872347 -17.077108 11.028588 -0.196365 2.853239 -7.870439 -2.958023 -2.258521 5.303747 2.529655 -2.835646 2.115649 3.659826 -1.787461 -5.977727 -6.198506 -2.667558 -14.356588 4.179662 -2.587006 15.290275 0.410257 -1.027094 8.567033 -7.325080 1.894968 -1.137344 -73.675026 -1.917800 28.345441 15.293759 -25.727443 -3.967726 -0.911952 -1.472190 -9.687297 30.389099 22.386050 13.796363 -7.125000 0.000000 0.000000 2.596542 57.096549 0.753492 11.678475 -1.844427 -2.667005 73.983947 -1.856305 11.230080 -10.170758 22.085917 -2.664407 1.140629 -0.512811 4.413577 -16.417540 19.069751 -6.009049 7.125000 0.000000 0.000000 6.913476 -9.830776 5.674249
1.194187 18.056171 17.050120 1.755486 2.553383 1.882017 -3.788350 5.903106 7.147947 -18.767538 -6.483998 -1.058114 -1.652244 3.306299 16.576522 2.519729 -7.009779 4.256707 0.142974 2.436738 6.714288 3.210419 -2.775466 1.337285 12.412980 9.373814 -33.220383 -1.232603 -9.349447 26.513540 5.034007 -17.421128 10.847465 -0.173313 2.660194 -7.335195 -3.044746 -2.379459 5.232287 2.590281 -2.993746 2.129751 3.772756 -1.872852 -5.906494 -6.209272 -2.642846 -14.444337 4.141991 -2.534723 15.320729 0.405797 -1.006705 8.591611 -7.325320 1.881984 -1.134029 -73.579711 -2.240314 28.395968 15.355588 -25.809020 -3.998038 -0.936273 -1.453577 -9.705649 30.902987 21.918573 13.820946 -7.125000 0.000000 0.000000 3.325058 56.679890 0.954792 11.681969 -1.844137 -2.664293 73.957143 -1.805442 10.965002 -10.130074 22.023208 -2.650036 1.134283 -0.521622 4.893012 -16.422764 19.023091 -5.996405 7.125000 0.000000 0.000000 6.909093 -9.878397 5.663845
1.185497 18.046913 17.154292 1.860563 2.790550 1.959342 -3.811610 5.947414 7.224849 -18.727887 -6.404796 -0.652186 -1.718664 3.131395 16.130277 2.576880 -7.260097 4.417415 0.144544 2.449970 6.750900 3.317564 -2.769314 1.278020 11.935752 9.658770 -32.938817 -0.867859 -8.818207 24.843919 5.171162 -17.652916 10.521321 -0.118928 2.195007 -6.046048 -3.234997 -2.507061 5.176389 2.632163 -3.171802 2.143406 3.925512 -1.965606 -5.841159 -6.234873 -2.606088 -14.478161 4.115310 -2.471107 15.291002 0.407703 -0.982652 8.586173 -7.325907 1.867487 -1.130690 -73.513604 -2.543983 28.339115 15.431546 -25.910563 -4.034369 -0.945393 -1.470463 -9.723997 31.238000 22.315408 14.223619 -7.125000 0.000000 0.000000 3.639705 57.214769 1.092324 11.687208 -1.847285 -2.663734 73.931042 -1.788261 10.750672 -10.076073 21.942974 -2.629723 1.126819 -0.534380 5.212287 -16.332915 19.079186 -5.981379 7.125000 0.000000 0.000000 6.973065 -9.824517 5.724677
1.177765 18.039175 17.260614 1.989542 3.046174 2.050294 -3.828725 5.997610 7.305841 -18.716296 -6.286416 -0.210797 -1.782139 2.949480 15.666716 2.626949 -7.467827 4.425027 0.128817 2.302894 6.343890 3.419568 -2.770676 1.215605 11.393356 9.996922 -32.638700 -0.536696 -8.295952 23.214287 5.333599 -17.977075 10.290106 -0.086018 1.884644 -5.187206 -3.433744 -2.635496 5.106243 2.663999 -3.351722 2.142624 4.070981 -2.059105 -5.782307 -6.282797 -2.591099 -14.448147 4.107541 -2.442721 15.215568 0.414636 -0.975668 8.554462 -7.326314 1.851167 -1.126353 -73.436347 -2.857458 28.317284 15.504647 -26.004610 -4.068634 -0.930946 -1.505670 -9.704560 31.084064 23.224516 14.633733 -7.125000 0.000000 0.000000 3.223895 58.217288 1.021932 11.694750 -1.851956 -2.665311 73.878482 -1.789897 10.660212 -10.009123 21.846682 -2.604266 1.119672 -0.542124 5.235944 -16.143355 19.137923 -5.930389 7.125000 0.000000 0.000000 7.103126 -9.778665 5.839882
